<svg xmlns="http://www.w3.org/2000/svg" viewBox="0 0 160.71 183.63"><title>dry-cleaning</title><g id="Layer_2" data-name="Layer 2"><g id="Layer_1-2" data-name="Layer 1"><path d="M160.54,149.91a6.23,6.23,0,0,1,.14,1.77c0,9.38,0,18.77,0,28.15a4,4,0,0,1-1.81,3.79H1.81A4,4,0,0,1,0,179.84q.06-40.6,0-81.2a11.23,11.23,0,0,1,.52-3.15c2.07-6.91,4.18-13.81,6.28-20.72C10.55,62.62,14.22,50.46,18,38.32c1.83-5.94,5.9-9.57,12.07-10.26,12.34-1.38,24.72-2.48,37.08-3.71,3.49-.35,7-.73,10.46-1.1,0-.62.08-1,.09-1.45.07-3.85.11-3.9,3.82-4.64a6,6,0,0,0,4.78-5.54,5.88,5.88,0,0,0-4.06-5.9c-3.71-1.24-7.12,1.12-7.76,5.36-.31,2-1.33,3-2.92,2.91s-2.58-1.43-2.42-3.52a10.91,10.91,0,0,1,5.56-8.89A29.77,29.77,0,0,1,78.2,0h3.95c3.34.91,6.16,2.52,8,5.62a11.31,11.31,0,0,1-5.63,16.25A16.26,16.26,0,0,0,82.63,23c.81.2,1,.26,1.15.28q23,2.32,46,4.63c6.6.66,11.07,4.21,13,10.55q8.76,28.67,17.47,57.36a10.51,10.51,0,0,1,.4,3q0,18.92,0,37.83a6.35,6.35,0,0,1-.06,1.43m-5.29-.17a11.06,11.06,0,0,1,0-1.61c0-9.8-.19-19.61.07-29.4a45,45,0,0,0-2.74-17.71c-.24-.61-.39-1.25-.58-1.88q-7.14-23.46-14.28-46.92c-1.38-4.52-3.92-6.63-8.59-7.11L94.94,29.84c-2-.2-4.08-.36-6.11-.53l-.13.5c4.23,1.51,7.79,4.24,12.56,5,8.18,1.25,16.21,3.5,24.32,5.21a4.57,4.57,0,0,1,3.83,3.42c6.37,19.32,12.82,38.61,19.22,57.92a12.8,12.8,0,0,1,.58,3.32c.46,8.83.88,17.67,1.31,26.5q.76,15.85,1.51,31.7c.11,2.4-.9,3.53-3.2,3.54q-9.59,0-19.19,0c-2,0-2.95-.91-3.09-2.93-.25-3.46-.44-6.92-.65-10.38-.73-12.41-1.4-24.82-2.25-37.22-.15-2.17-1.07-4.29-1.63-6.43l-.47.08c-.34,4.1-1,8.21-.94,12.3.06,4.89.85,9.76,1.1,14.65.6,11.69,1.1,23.4,1.58,35.1.1,2.48-1,3.43-3.49,3.43H40.91c-2.54,0-3.62-.94-3.5-3.42.71-14.74,1.3-29.49,2.35-44.21a83.86,83.86,0,0,0-.83-18.08c-2,4.31-2.09,8.66-2.34,13q-1.17,20.4-2.42,40.8c-.16,2.56-1,3.3-3.65,3.3H12.78c-3.43,0-4.25-.87-4.09-4.25q1.26-26.23,2.53-52.47c.13-2.67,0-5.5.79-8C18.41,82,25,62.4,31.55,42.76a3.66,3.66,0,0,1,3-2.65c6.54-1.39,13.05-2.89,19.59-4.29,5.68-1.22,11.49-2,16.47-5.39.44-.3.92-.52,1.39-.78a5.11,5.11,0,0,0-2.3-.21c-12.48,1.26-25,2.64-37.45,3.74-5.27.46-8.15,3.08-9.63,8C17.13,59.68,11.45,78.1,5.86,96.54a9.23,9.23,0,0,0-.42,2.63q0,38.55,0,77.1c0,.63,0,1.26,0,1.86H155.28c0-.7,0-1.28,0-1.87q0-12.19,0-24.39a11.23,11.23,0,0,1,0-1.61m-37.45,19.27c0-.54,0-.95,0-1.35-.76-13.59-1.54-27.19-2.27-40.78a68.29,68.29,0,0,1-.2-9.81c.83-9,1.94-18,2.94-27.06q1.88-17,3.77-34c.42-3.78.83-7.57,1.26-11.48l-16.52-3.66c.59.89.94,1.43,1.31,1.95,2.85,4,5.72,8,8.54,12,1.43,2,1,3.51-1.13,4.69-.73.4-1.5.74-2.24,1.12l-6.82,3.45c.69,2.79,1.24,5.42,2,8a4.69,4.69,0,0,1-1,4.77c-7.77,9.39-15.44,18.85-23.2,28.25a5.17,5.17,0,0,0-1.3,3.55q.06,29.13,0,58.25v2.19Zm-75.15,0H77.57c0-.6.08-1.08.08-1.55q0-29.67,0-59.33a5,5,0,0,0-1.12-2.85Q64.81,91.35,53,77a4.19,4.19,0,0,1-.92-4.12c.75-2.75,1.41-5.53,2.13-8.4l-8.38-4.2c-3.09-1.56-3.42-2.8-1.44-5.57L52.5,43.37c.37-.52.71-1,1.35-2L37.32,45.06c.07.71.12,1.23.18,1.76q1.33,11.93,2.67,23.86c1.39,12.52,2.81,25,4.15,37.57.5,4.68,1.29,9.4,1.12,14.08-.31,8.71-1.31,17.39-1.84,26.09C43.17,155.38,43,162.36,42.73,169.5Zm-13.86-8.58c.07-.42.13-.65.14-.89.63-10.86,1.33-21.71,1.85-32.58.39-8.07,1-16.07,3.83-23.75A77.73,77.73,0,0,0,37,95.79a8.67,8.67,0,0,0,.23-3c-1-9.44-2.07-18.88-3.13-28.32-.3-2.72-.63-5.43-1-8.68-.38.93-.58,1.34-.72,1.76q-7.53,22.58-15,45.17a7.27,7.27,0,0,0-.39,1.91q-1.3,27.13-2.56,54.27c0,.64,0,1.27,0,2ZM128,56.33l-.32.06c-.07.34-.18.68-.22,1-1.22,11-2.37,22-3.7,32.92a19.37,19.37,0,0,0,.8,8.43c1.11,3.46,2.08,7,3,10.48a32,32,0,0,1,1.48,6.25c.85,13,1.55,26,2.3,39,.12,2.13.29,4.25.44,6.38h14.63c0-.5,0-.85,0-1.21-.78-16.83-1.52-33.65-2.39-50.47a34,34,0,0,0-1.28-8.24c-2.48-8-5.24-16-7.9-24Q131.42,66.66,128,56.33ZM68,54.31,80.15,95.84h.41L92.67,54.31Zm42.78,2-9.31-13L86.78,93.79a7.06,7.06,0,0,0,.73-.62C92.58,87,97.66,80.81,102.68,74.59a2.34,2.34,0,0,0,.28-1.76c-.62-2.79-1.36-5.56-2-8.34-.55-2.24-.12-3.14,1.94-4.19C105.45,59,108,57.7,110.82,56.31Zm-60.9,0,7.58,3.81c2.51,1.26,2.86,2,2.19,4.68s-1.24,5.1-1.92,7.64A2.55,2.55,0,0,0,58.3,75c4.7,5.65,9.33,11.36,14,17,.33.41.7.78,1.06,1.17l.35-.25L59.19,43.29Zm14-16.37c.79,2.74,1.5,5.38,2.34,8a1.63,1.63,0,0,0,1.23.88q12.9.07,25.8,0c.39,0,1-.26,1.12-.54.87-2.74,1.66-5.51,2.48-8.33ZM75,34.32H85.79c-1.87-.94-3.29-1.69-4.73-2.37a1.56,1.56,0,0,0-1.15-.1C78.37,32.56,76.87,33.36,75,34.32Z"/><path d="M100.45,132.28c2.75,0,5.5,0,8.25,0,1.94,0,3.14,1.11,3.09,2.71a2.78,2.78,0,0,1-3,2.64q-8.25.06-16.49,0c-1.94,0-3.08-1.12-3.05-2.76s1.13-2.58,3.17-2.6C95.07,132.26,97.76,132.28,100.45,132.28Z"/><path d="M60.23,137.66c-2.68,0-5.36,0-8,0-2,0-3.3-1.12-3.27-2.76s1.22-2.6,3.18-2.61q8.13,0,16.27,0c2,0,3.12,1,3.14,2.61s-1.13,2.73-3.06,2.76c-2.74,0-5.48,0-8.22,0Z"/></g></g></svg>