<svg id="Layer_1" data-name="Layer 1" xmlns="http://www.w3.org/2000/svg" viewBox="0 0 200 200"><title>Artboard 1</title><path d="M167.86,26.94c-10-11.49-22-19.35-38.49-18.79C110.74,8.77,92,8.83,73.42,8A45,45,0,0,0,42,18.38C28.44,29.3,20.1,43,20.1,61q0,19.61,0,39.22h0c0,11.8.51,23.62-.13,35.39-.82,15.31,4.31,28.28,14.26,39.33,9.8,10.89,21.65,17.95,37.12,17.7,20.56-.33,41.13-.09,61.7-.11a30.66,30.66,0,0,0,4.77-.16c21.82-3.48,43.1-28.41,43.13-50.55,0-26-.35-52,.11-78Q181.44,42.51,167.86,26.94Zm7.29,39.56c-.43,24.08-.08,48.17-.11,72.25,0,20.52-19.75,43.63-40,46.85a28.4,28.4,0,0,1-4.42.15c-19.06,0-38.13-.21-57.18.1-14.34.23-25.32-6.31-34.4-16.4s-14-22.26-13.22-36.45c.59-10.9.12-21.86.12-32.8h0Q26,82,26,63.85C26,47.21,33.72,34.5,46.3,24.38A41.7,41.7,0,0,1,75.4,14.8c17.26.73,34.58.67,51.85.09,15.27-.52,26.37,6.77,35.67,17.42Q175.55,46.75,175.15,66.49Z"/><path d="M101.27,82C84.5,82,71.65,95.46,71.6,113s13.13,31.46,29.87,31.46,29.91-13.81,29.89-31.42S118.37,81.91,101.27,82Zm17.34,44.43c1.71,2.94,1,4.65-1.28,6.47-4.76,3.83-10.08,6-16.3,5.74a24.36,24.36,0,0,1-22.9-17.14c-3.42-11.06.4-23.37,9.16-29.51a24.31,24.31,0,0,1,29.41.5c2.58,2,4,3.78,1.89,7.52C113.62,108.62,113.56,117.71,118.61,126.4Z" style="fill:#fff"/><path d="M101.27,82C84.5,82,71.65,95.46,71.6,113s13.13,31.46,29.87,31.46,29.91-13.81,29.89-31.42S118.37,81.91,101.27,82Zm17.34,44.43c1.71,2.94,1,4.65-1.28,6.47-4.76,3.83-10.08,6-16.3,5.74a24.36,24.36,0,0,1-22.9-17.14c-3.42-11.06.4-23.37,9.16-29.51a24.31,24.31,0,0,1,29.41.5c2.58,2,4,3.78,1.89,7.52C113.62,108.62,113.56,117.71,118.61,126.4Z"/><path d="M100.47,37.26a9,9,0,1,0,9,9A9.05,9.05,0,0,0,100.47,37.26Zm0,15.52a6.48,6.48,0,1,1,6.48-6.48A6.49,6.49,0,0,1,100.47,52.78Z"/></svg>