<svg xmlns="http://www.w3.org/2000/svg" viewBox="0 0 156.94 182.93"><title>shoe-leather-care</title><g id="Layer_2" data-name="Layer 2"><g id="Layer_1-2" data-name="Layer 1"><path d="M66,32.7c-.08-6-.39-11.82-.13-17.57A24.46,24.46,0,0,1,68,6.88,10.67,10.67,0,0,1,78.59,0C83.51.06,87,2.5,89,6.91a28.94,28.94,0,0,1,2.34,13c-.06,4.21-.52,8.41-.81,12.83,1.26,0,2.61,0,4,0,2.21.07,3.51,1.22,3.52,3.38.11,12,9.11,18.64,19.18,19.93a32.17,32.17,0,0,0,17.32-2.75c3.58-1.57,4.42-1.27,6.46,2Q148.37,67.18,155.8,79c1.95,3.12,1.47,4.72-2,6.17-16.69,7.07-24.5,23-22.89,40.56,1,10.54,5.67,18.88,14.34,25,2.34,1.65,2.48,3.61.46,5.64q-9.36,9.43-18.79,18.79c-1.75,1.74-3.08,1.91-5.06.43-11.88-8.85-28.47-7.33-39.81,5-.89,1-2.05,2.2-3.17,2.29a5.24,5.24,0,0,1-3.58-1.74c-4.61-5-9.93-8.72-16.57-10.32a27.7,27.7,0,0,0-23,4.2c-3.15,2.15-3.92,2.08-6.63-.63L11.55,156.8c-2.52-2.53-2.43-4.27.43-6.32,11.51-8.25,15.09-19.86,14-33.34-.86-10.42-5-19.37-13.23-26a60.86,60.86,0,0,0-9.9-6c-3-1.6-3.62-3.06-1.8-6Q8.64,66.94,16.29,54.74c1.66-2.66,2.84-3,5.78-1.64,7.62,3.43,15.41,4.33,23.42,1.51,8.26-2.9,13-9.41,13.37-18.17.1-2.56,1.25-3.7,3.81-3.74C63.88,32.68,65.1,32.7,66,32.7ZM18,154.11c4.85,4.84,9.55,9.58,14.35,14.2.38.36,1.62.21,2.25-.12,11.83-6.27,23.6-6.35,35.21.45,3.08,1.81,5.88,4.1,8.9,6.23.68-.6,1.44-1.28,2.21-1.95,12.25-10.58,27.55-12.28,41.56-4.55a1.82,1.82,0,0,0,2.62-.42c2.85-2.93,5.75-5.81,8.66-8.68,1.73-1.71,3.53-3.35,5.34-5.06-12.24-10.81-16.38-24.23-14.29-39.55s10.41-26.88,24.14-34.44L136.09,59.7a37.54,37.54,0,0,1-22.54,1.53c-10-2.46-17.63-7.78-20.93-18-.41-1.28-.66-2.61-1-3.89H89.21c-1.56,7.31-3,14.51-4.67,21.67a3.23,3.23,0,0,0,1.51,4,12.32,12.32,0,0,1,4.86,13.86c-1.76,5.36-7.05,9.39-12.38,9.43-6.14,0-12-5.09-13-11.47-.93-5.57,3.13-12.12,9.15-13.83,2.73-.78,3.77-2.1,3.89-4.65a3.87,3.87,0,0,1,.15-.59L82.6,39.18c-5.66,0-11,0-16.41.06-.43,0-1.11.83-1.22,1.37a23.76,23.76,0,0,1-6.39,12.34C53,58.65,46,61.37,38.14,62.08A38.09,38.09,0,0,1,20.81,59.7L8,80.18C36.54,94.75,40.72,135,18,154.11ZM83.71,32.6c1.13-6.11,1.9-12.17,1.17-18.3a13.41,13.41,0,0,0-1.63-5c-2.25-3.9-7.39-3.79-9.67.11A9.26,9.26,0,0,0,72.49,12C71,19,72.09,25.79,73.18,32.6Zm-1,37.52c-.34,1.89-.63,3.56-1,5.22-.42,2.15-2,3.4-3.85,3S75,76.3,75.33,74.15c.28-1.65.58-3.3.9-5.06-3.09.92-4.47,3.09-4.34,6.48a6,6,0,0,0,5,6.08c3.22.64,6.27-.68,7.48-3.24A6.86,6.86,0,0,0,82.67,70.13Z"/><path d="M81.69,162.29a3.23,3.23,0,1,1-3.22-3.23A3.26,3.26,0,0,1,81.69,162.29Z"/><path d="M101.83,153.63a3.3,3.3,0,0,1,3.31-3.17,3.24,3.24,0,0,1-.13,6.48A3.33,3.33,0,0,1,101.83,153.63Z"/><path d="M112.34,70.22a3.28,3.28,0,0,1-3.16,3.31,3.23,3.23,0,0,1-3.3-3.14,3.23,3.23,0,1,1,6.46-.16Z"/><path d="M42.53,121.41a3.2,3.2,0,0,1-3.33-3.1,3.24,3.24,0,0,1,3.09-3.36,3.4,3.4,0,0,1,3.37,3.14A3.23,3.23,0,0,1,42.53,121.41Z"/><path d="M115.53,112.72a3.24,3.24,0,0,1-3.15-3.3,3.17,3.17,0,0,1,3.26-3.15,3.26,3.26,0,0,1,3.19,3.26A3.34,3.34,0,0,1,115.53,112.72Z"/><path d="M42.5,72.15a3.17,3.17,0,0,1-3.14,3.27,3.32,3.32,0,0,1-3.29-3.2A3.21,3.21,0,0,1,39.27,69,3.13,3.13,0,0,1,42.5,72.15Z"/><path d="M25.57,75.84a3.32,3.32,0,0,1-3.26,3.27,3.23,3.23,0,0,1-3.17-3.31,3.09,3.09,0,0,1,3.11-3.11A3.19,3.19,0,0,1,25.57,75.84Z"/><path d="M45.32,128.11a3.22,3.22,0,0,1-6.44-.22,3.22,3.22,0,1,1,6.44.22Z"/><path d="M73.12,157.57a3.19,3.19,0,0,1-3.35,3.11,3.27,3.27,0,0,1-3.1-3.4,3.34,3.34,0,0,1,3.27-3A3.27,3.27,0,0,1,73.12,157.57Z"/><path d="M48.94,67.08a3.36,3.36,0,0,1,3.24,3.25,3.24,3.24,0,0,1-3.25,3.2,3.18,3.18,0,0,1-3.2-3.21A3.25,3.25,0,0,1,48.94,67.08Z"/><path d="M60.46,157.75a3.26,3.26,0,0,1-3.14-3.15,3.34,3.34,0,0,1,3.25-3.29,3.22,3.22,0,1,1-.11,6.44Z"/><path d="M32.69,72.07a3.13,3.13,0,0,1-3.31,3.12A3.2,3.2,0,0,1,26.29,72a3.3,3.3,0,0,1,3.25-3.27A3.21,3.21,0,0,1,32.69,72.07Z"/><path d="M103.26,66.67A3.23,3.23,0,0,1,100,69.86a3.12,3.12,0,0,1-3.12-3.1A3.21,3.21,0,0,1,100,63.42,3.33,3.33,0,0,1,103.26,66.67Z"/><path d="M135.2,73.52a3.24,3.24,0,0,1,3.24,3.25,3.28,3.28,0,0,1-3.35,3.17A3.19,3.19,0,0,1,132,76.76,3.11,3.11,0,0,1,135.2,73.52Z"/><path d="M116.94,135.34a3.23,3.23,0,0,1,.1,6.47,3.23,3.23,0,1,1-.1-6.47Z"/><path d="M41.06,151.8A3.27,3.27,0,0,1,44.32,155,3.18,3.18,0,0,1,41,158.22a3.09,3.09,0,0,1-3.11-3.09A3.18,3.18,0,0,1,41.06,151.8Z"/><path d="M30.35,90.22a3.29,3.29,0,0,1,3.53-3,3.2,3.2,0,0,1,2.87,3.56,3.1,3.1,0,0,1-3.58,2.8A3.19,3.19,0,0,1,30.35,90.22Z"/><path d="M128.56,80.22a3.33,3.33,0,0,1,3.28,3.25,3.19,3.19,0,0,1-3.28,3.19,3.11,3.11,0,0,1-3.13-3.09A3.21,3.21,0,0,1,128.56,80.22Z"/><path d="M68.69,60.17a3,3,0,0,1-3.18,3.22,3.13,3.13,0,0,1-3.23-3A3.25,3.25,0,0,1,65.4,57,3.17,3.17,0,0,1,68.69,60.17Z"/><path d="M61.09,66.27a3.18,3.18,0,0,1-3.22,3.24,3.08,3.08,0,0,1-3.18-3,3.19,3.19,0,0,1,3.08-3.38A3.24,3.24,0,0,1,61.09,66.27Z"/><path d="M128.49,74.78a3.14,3.14,0,0,1-3.08-3.31,3.24,3.24,0,0,1,3.28-3.16,3.32,3.32,0,0,1,3.13,3.35A3.23,3.23,0,0,1,128.49,74.78Z"/><path d="M118.36,96.86a3.23,3.23,0,0,1,3.22,3.22,3.3,3.3,0,0,1-3.21,3.26,3.24,3.24,0,0,1-3.18-3.26A3.14,3.14,0,0,1,118.36,96.86Z"/><path d="M40.21,140.85a3.22,3.22,0,0,1-3.18-3.3,3.09,3.09,0,0,1,3.1-3.12,3.14,3.14,0,0,1,3.29,3.15A3.22,3.22,0,0,1,40.21,140.85Z"/><path d="M54,153.74a3.16,3.16,0,0,1-3.25,3.2,3.22,3.22,0,0,1-3.14-3.34,3.26,3.26,0,0,1,3.18-3.12A3.19,3.19,0,0,1,54,153.74Z"/><path d="M125.92,91.31a3.11,3.11,0,0,1-3.24,3.18,3.18,3.18,0,0,1-3.19-3.08,3.3,3.3,0,0,1,3.19-3.32A3.17,3.17,0,0,1,125.92,91.31Z"/><path d="M118.06,154.7a3.32,3.32,0,0,1-3.21,3.31,3.2,3.2,0,0,1-3.24-3,3.16,3.16,0,0,1,3.07-3.37A3.21,3.21,0,0,1,118.06,154.7Z"/><path d="M120.39,155.21a3.25,3.25,0,0,1,3.51-3,3.19,3.19,0,0,1,2.86,3.58,3.2,3.2,0,0,1-6.37-.61Z"/><path d="M122,71.87a3.26,3.26,0,0,1-3.27,3.22,3.21,3.21,0,0,1-3.09-3.37,3.11,3.11,0,0,1,3.15-3.07A3.14,3.14,0,0,1,122,71.87Z"/><path d="M39.73,146.58a3.27,3.27,0,0,1-3.13,3.36,3.23,3.23,0,0,1-3.22-3,3.17,3.17,0,0,1,3-3.42A3.13,3.13,0,0,1,39.73,146.58Z"/><path d="M98.52,154.73a3.11,3.11,0,0,1-3.22,3.21,3.19,3.19,0,1,1,0-6.39A3.15,3.15,0,0,1,98.52,154.73Z"/><path d="M41.06,111.67a3.08,3.08,0,0,1-3.12-3.29,3.14,3.14,0,0,1,3.12-3.12,3.27,3.27,0,0,1,3.29,3.22A3.21,3.21,0,0,1,41.06,111.67Z"/><path d="M117.69,119.12a3.25,3.25,0,0,1-3.11,3.33,3.34,3.34,0,0,1-3.35-3.14,3.23,3.23,0,0,1,6.46-.19Z"/><path d="M89.27,157.82a3.18,3.18,0,0,1-3.17,3.29,3.22,3.22,0,0,1-.18-6.43A3.25,3.25,0,0,1,89.27,157.82Z"/><path d="M74.4,52.25a3.19,3.19,0,0,1-3.18,3.27,3.23,3.23,0,0,1-.08-6.46A3.17,3.17,0,0,1,74.4,52.25Z"/><path d="M92.08,57.64a3.23,3.23,0,0,1,.13,6.47,3.24,3.24,0,0,1-3.26-3.18A3.2,3.2,0,0,1,92.08,57.64Z"/><path d="M114.93,125.84a3.13,3.13,0,0,1,3.2,3.23,3.24,3.24,0,0,1-3.32,3.16,3.29,3.29,0,0,1-3.12-3.18A3.17,3.17,0,0,1,114.93,125.84Z"/><path d="M120.81,150.81a3.23,3.23,0,0,1,.1-6.46,3.29,3.29,0,0,1,3.19,3.27A3.35,3.35,0,0,1,120.81,150.81Z"/><path d="M41.33,99.06a3.19,3.19,0,0,1-3.17,3.3,3.25,3.25,0,0,1-3.25-3.25A3.15,3.15,0,0,1,38,96,3.1,3.1,0,0,1,41.33,99.06Z"/><path d="M35.82,154.82a3.26,3.26,0,0,1-3.37,3.12,3.16,3.16,0,0,1-3.06-3.38,3.11,3.11,0,0,1,3.21-3A3.21,3.21,0,0,1,35.82,154.82Z"/><path d="M30.71,82.73a3.08,3.08,0,0,1-3.21,3.2,3.11,3.11,0,0,1-3.15-3.07,3.16,3.16,0,0,1,3.12-3.32A3.13,3.13,0,0,1,30.71,82.73Z"/><path d="M57.31,124c.14,1.62,1.09,1.79,2.17,1.7a23.67,23.67,0,0,0,8.07-2.38,49.51,49.51,0,0,0,19.77-15.69c.19-.26.38-.51.55-.78,1.16-1.85,1-2.26-1.13-2.83a3.32,3.32,0,0,1,2.82-1.5,1.64,1.64,0,0,1,1.83,1.6,5.59,5.59,0,0,1-.31,2.35c-.1.33-.39.68-.05,1,.54.58,3.07.39,3.53-.26,1.61-2.28,4.09-2.1,5.18.43a1.71,1.71,0,0,0,1.67,1.15,15.13,15.13,0,0,0,3.64-.24,3.23,3.23,0,0,1,3,1.11c.86.84,1.53,1.42,1.35,2.79a5.64,5.64,0,0,1-2.48,3.9,30.36,30.36,0,0,1-8.38,4.79c-2.69.92-5.24,2.36-8,2.74-1.54.21-2.68,1.09-4.07,1.44-3.11.78-6,2.23-9.13,2.9-2.6.56-4.85,2-7.46,2.43-.65.1-.81.44-.85,1.08a3,3,0,0,1-2.49,3c-1.49.19-2.7-.66-3.24-2.41-.17-.55-.33-.79-.94-.78a2.64,2.64,0,0,1-2.72-2A1.87,1.87,0,0,0,58,128.21c-.88-.18-1.85-.44-2.09-1.48S56.32,124.94,57.31,124Zm14.41,4.76c.93-.37,1.9-.42,2.38-1.36a.67.67,0,0,1,.81-.33c2.25.51,4.06-.86,6-1.45.5-.15.62-1.09,1.19-.95,2.54.64,2-.22,1.16-1.86-.56-1.13-1-1.24-2-.86a4.65,4.65,0,0,1-3.27.33,3.47,3.47,0,0,0-3.38.65,39.21,39.21,0,0,1-12.91,5.26c-.57.12-1.54-.21-1.59.59s.83,1.17,1.57,1.33a2.19,2.19,0,0,0,2.47-.53,2,2,0,0,1,2.34-.58C68.41,129.84,70.09,129.15,71.72,128.79Zm36.49-17c-4.47,3.77-10,4.72-15,6.86a28.33,28.33,0,0,1-3.82,1.08c-1.44.39-.7,1.44-.63,2.23s.72,1,1.42.76c1.42-.45,2.82-.94,4.24-1.4.65-.21.92-1.12,1.75-1a4.5,4.5,0,0,0,2.73-.68c1.46-.64,2.65-1.81,4-2.45a18.77,18.77,0,0,0,4.61-3.31A1.84,1.84,0,0,0,108.21,111.76Zm-8.89,1.58c-1.46.6-2.58,1.12-3.74,1.53-1.89.67-3.81,1.28-5.72,1.91-1,.33-.79.79-.16,1.32a1.58,1.58,0,0,0,1.65.2c1.36-.44,2.69-1,4.08-1.31C97.33,116.55,98.27,115.19,99.32,113.34Z"/><path d="M61.55,110.32c-.22-.66-.45-1.25-.61-1.87-.21-.83-.22-1.65.83-1.93s1.35.39,1.61,1.16c.21.6.36,1.23.61,1.81a5.21,5.21,0,0,0,8.76,1.21,3.13,3.13,0,0,0,.4-2.89,14.63,14.63,0,0,0-1.86-4.39,1.85,1.85,0,0,1,.13-2.6,2.44,2.44,0,0,1,2.94-.32c3.88,1.87,7.37,4.5,11.46,6,.42.15,1,.29.94.91a1.41,1.41,0,0,1-1,1.18,2.38,2.38,0,0,1-2.41-.17,2.67,2.67,0,0,0-3.87.13c-.12.11-.27.18-.39.28-.77.62-2.31,1-2.15,1.88.23,1.14,1.86.85,2.86,1.23.65.25,1.46,0,2,.73a12.68,12.68,0,0,1-5.49-1.09c-.86-.42-.9-1-.12-1.56,1.38-1,2.77-2,4.16-3,.91-.65,1.72.26,2.61,0-1.11-.58-2.14-1.4-3.53-.36-1.57,1.18-3.21,2.27-4.82,3.41-.94.66-1.17,1.2.16,1.71a38,38,0,0,0,5.25,1.31c.95.22,1.09.62.32,1.22a51.3,51.3,0,0,1-4.58,3.37c-1.43.88-2.74,2.09-4.26,2.94a45.71,45.71,0,0,1-8.23,3.81c-3.22,1-4.44.12-4.37-3.2a17.4,17.4,0,0,0-.38-4.9c-.49-1.87.62-3.49,1.12-5.18A1.48,1.48,0,0,1,61.55,110.32Zm2.69,11.63a1.46,1.46,0,0,0,1.08-.8c.54-.85,1-1.72,1.62-2.54s.32-1.16-.67-1.14c-1.93,0-3.9.39-5.59-1.07a.69.69,0,0,0-1.18.63c.26,1.59.07,3.17.21,4.75,0,.43.27,1.21.81.87C61.76,121.89,63.12,122.24,64.25,121.95Z"/><path d="M57.61,109.45A3,3,0,0,1,56,113.11a3,3,0,0,1-3.74-1.82A2.89,2.89,0,0,1,54,107.72,2.76,2.76,0,0,1,57.61,109.45Z"/><path d="M82.86,98.4a2.43,2.43,0,0,1-1.52,3.22,2.4,2.4,0,0,1-3-1.59,2.43,2.43,0,1,1,4.57-1.64Z"/><path d="M63.33,102.18a2.31,2.31,0,1,1,2.76,1.57A2.36,2.36,0,0,1,63.33,102.18Z"/><path d="M58.2,119.55a2,2,0,0,1-1.35,2.66,2.07,2.07,0,0,1-1.19-4A2,2,0,0,1,58.2,119.55Z"/><path d="M58.66,130.06c.16,1-.11,1.83-1.19,2.1a1.55,1.55,0,0,1-2-1,1.7,1.7,0,1,1,3.22-1.06Z"/><path d="M79.12,124c.2,1-.06,1.89-1.07,2.22a1.61,1.61,0,0,1-2.17-1.09,1.46,1.46,0,0,1,1-2A1.77,1.77,0,0,1,79.12,124Z"/></g></g></svg>